<svg id="Layer_1" data-name="Layer 1" xmlns="http://www.w3.org/2000/svg" viewBox="0 0 300 96"><defs><style>.cls-1{fill:#fff;}</style></defs><title>Artboard 1</title><path d="M99,49.51a28,28,0,0,1,7.44,1.14L110,49.51v10l-1.26.3-2.28-3.54c-2.22-3.42-4.14-4.26-7.26-4.26-6.54,0-10,5.58-10,15.84,0,10,4.14,14.64,10.56,14.64C103,82.52,106,82,110,78.86l1.32,1.86c-2.52,3.48-7,5.28-12.12,5.28-9.6,0-16.32-6.42-16.32-18.12C82.87,55.93,89.71,49.51,99,49.51Z"/><path d="M131.6,79.88c0,2.76,1,3.48,4.44,3l.18,1.32a7.11,7.11,0,0,1-5.16,1.8,4.13,4.13,0,0,1-4.38-3.6h-.24c-1.08,2.28-3.9,3.6-6.84,3.6-4.5,0-7.56-2.4-7.56-7.32,0-5.22,4-7.86,10.74-7.86a16.89,16.89,0,0,1,3.54.36V68c0-3.54-2.28-5.28-5.58-5.28a11.81,11.81,0,0,0-7.2,2.52l-.78-1.74A12.27,12.27,0,0,1,123,58.64c4.5,0,8.64,2.64,8.64,8Zm-6.84-6.48c-4.62,0-7.38,1.08-7.38,5a3.75,3.75,0,0,0,4.08,4.08,6,6,0,0,0,4.86-2V73.4Z"/><path d="M137.84,76.94c2.52,5.4,4.86,6.78,8.1,6.78,2.7,0,4.5-1,4.5-3.78,0-2.28-1.32-3.54-4.32-4.56l-3.42-1.2c-3.6-1.26-5.94-3.48-5.94-7.92,0-5.16,3.72-7.62,8.76-7.62a12.66,12.66,0,0,1,4.8,1.08l2.88-1,.48,7.68-1.26.42c-2.58-4.44-4.68-5.7-7.26-5.7s-4.08,1.44-4.08,3.6,1.08,3.54,4,4.56l3.42,1.14c4,1.38,6.42,3.48,6.42,8,0,5.34-4,7.56-9.36,7.56a14.2,14.2,0,0,1-5.94-1.38L136.94,86l-.54-8.64Z"/><path d="M168.63,61.16c-5,0-8,4-8,10.44s3.06,10.5,8.34,10.5a11.83,11.83,0,0,0,7-2.46l.78,1.38c-2.58,3.84-5.94,5-9.84,5-6.36,0-11.28-4.8-11.28-13.56,0-8.52,5.82-13.8,13.08-13.8,4.14,0,7.62,1.56,7.62,5.16a3.41,3.41,0,0,1-3.42,3.66,3.23,3.23,0,0,1-3.42-3.36,3.47,3.47,0,0,1,1.32-2.7A8,8,0,0,0,168.63,61.16Z"/><path d="M197.25,79.88c0,2.76,1,3.48,4.44,3l.18,1.32a7.11,7.11,0,0,1-5.16,1.8,4.13,4.13,0,0,1-4.38-3.6h-.24c-1.08,2.28-3.9,3.6-6.84,3.6-4.5,0-7.56-2.4-7.56-7.32,0-5.22,4-7.86,10.74-7.86a16.89,16.89,0,0,1,3.54.36V68c0-3.54-2.28-5.28-5.58-5.28a11.81,11.81,0,0,0-7.2,2.52l-.78-1.74a12.27,12.27,0,0,1,10.2-4.86c4.5,0,8.64,2.64,8.64,8Zm-6.84-6.48c-4.62,0-7.38,1.08-7.38,5a3.75,3.75,0,0,0,4.08,4.08,6,6,0,0,0,4.86-2V73.4Z"/><path d="M219.22,82a9.37,9.37,0,0,1-8,4c-6.36,0-10.8-4.74-10.8-12.78,0-10.26,7.14-14.58,13.86-14.58a9.67,9.67,0,0,1,4.5.9V50.47l-3.48-2.76v-.66l7.8-2.52h1V80.78l3.66,2.82v.6L219.82,86l-.42-4Zm-5.52.18a8.58,8.58,0,0,0,5-1.68V62.66a6.2,6.2,0,0,0-4.56-1.5c-4.92,0-8.28,4.14-8.28,11C205.89,78.68,209,82.16,213.7,82.16Z"/><path d="M239.62,82.1a11.93,11.93,0,0,0,7.44-2.46l.78,1.38c-2.16,3.3-5.22,5-9.84,5-6.42,0-11.52-4.44-11.52-13.44s5.64-13.92,12.36-13.92c5.4,0,9.3,3.36,9.3,9.42a14.77,14.77,0,0,1-.3,3.12H231.52C231.52,78.08,234.58,82.1,239.62,82.1ZM231.7,68.6h11a14.66,14.66,0,0,0,.06-1.62c0-3.78-1.5-5.76-4.62-5.76C235.24,61.22,232.54,63.5,231.7,68.6Z"/><path d="M250.67,76.94c2.52,5.4,4.86,6.78,8.1,6.78,2.7,0,4.5-1,4.5-3.78,0-2.28-1.32-3.54-4.32-4.56l-3.42-1.2c-3.6-1.26-5.94-3.48-5.94-7.92,0-5.16,3.72-7.62,8.76-7.62a12.66,12.66,0,0,1,4.8,1.08l2.88-1,.48,7.68-1.26.42c-2.58-4.44-4.68-5.7-7.26-5.7s-4.08,1.44-4.08,3.6,1.08,3.54,4,4.56l3.42,1.14c4,1.38,6.42,3.48,6.42,8,0,5.34-4,7.56-9.36,7.56a14.21,14.21,0,0,1-5.94-1.38L249.76,86l-.54-8.64Z"/><path class="cls-1" d="M82.57,34.19c0-4.64,2.52-7.5,7-7.5s6.93,2.86,6.93,7.5-2.52,7.5-6.93,7.5S82.57,38.83,82.57,34.19Zm10.19,0c0-4.56-1-6.32-3.23-6.32s-3.26,1.75-3.26,6.32,1,6.32,3.26,6.32S92.76,38.73,92.76,34.19Z"/><path class="cls-1" d="M103.42,40.68l-.32.76h-6v-.69l1-.44V33.58l-1-1.63v-.27l3.73-1.23h.52L101.23,33h.1a3.44,3.44,0,0,1,3.08-2.52,1.89,1.89,0,0,1,2.1,2,1.69,1.69,0,0,1-1.7,1.8,1.61,1.61,0,0,1-1.7-1.73,5,5,0,0,0-1.78,1.58v6.14Z"/><path class="cls-1" d="M112.55,39.62a3.86,3.86,0,0,0,2.66-1l.47.54c-.79,1.78-2.29,2.49-4.39,2.49-2.81,0-5-1.8-5-5.48s2.52-5.77,5.5-5.77a3.75,3.75,0,0,1,4.1,4,7.22,7.22,0,0,1-.12,1.41h-6.32C109.47,38.09,110.45,39.62,112.55,39.62Zm-3.08-4.93h3.48a4.24,4.24,0,0,0,.07-.91c0-1.16-.32-2.2-1.48-2.2S109.66,32.59,109.47,34.69Z"/><path class="cls-1" d="M123.75,39.3c2.34,0,3.82,1.14,3.82,3.5,0,3-3,4.12-6.24,4.12-3,0-5.23-.69-5.23-2.59,0-1.41,1.11-2,2.79-2.29V42a2.2,2.2,0,0,1-2.2-2.27c0-1.28,1-2,2.32-2.32a3.09,3.09,0,0,1-2.29-3.08c0-2.17,1.63-3.85,4.74-3.85a9.44,9.44,0,0,1,3.95.81,1,1,0,0,1-.15-.59,1.26,1.26,0,0,1,1.36-1.28A1.31,1.31,0,0,1,128,30.79a1.37,1.37,0,0,1-1.5,1.46,5.6,5.6,0,0,1-1.95-.52V32A2.49,2.49,0,0,1,126,34.32c0,2.37-2.37,3.43-4.54,3.43a5.86,5.86,0,0,1-1.5-.17c-.52.17-.91.44-.91,1s.3.74.89.74Zm-4.93,4.61c0,1.31,1,1.92,2.66,1.92,1.95,0,3.43-.54,3.43-2.1,0-.94-.49-1.51-1.95-1.51h-3.11A1.81,1.81,0,0,0,118.82,43.91Zm2.54-12.36c-1.26,0-1.48,1-1.48,2.57s.22,2.54,1.48,2.54,1.5-1,1.5-2.54S122.64,31.55,121.36,31.55Z"/><path class="cls-1" d="M132.54,41.69c-3.33,0-5.53-1.9-5.53-5.63s2.2-5.63,5.53-5.63,5.53,1.9,5.53,5.63S135.87,41.69,132.54,41.69Zm0-1.14c1.65,0,2.1-1.63,2.1-4.49s-.44-4.49-2.1-4.49-2.1,1.63-2.1,4.49S130.88,40.56,132.54,40.56Z"/><path class="cls-1" d="M151,40.73l-.32.72h-5.4v-.69l1-.47V34.91c0-1.6-.84-2.15-1.75-2.15a2.86,2.86,0,0,0-1.95.84v6.66l1.46.47-.32.72h-5.38v-.69l1-.44V33.55l-1-1.63v-.27l3.73-1.21h.52l-.07,2.15h.1a4.23,4.23,0,0,1,3.78-2.15c1.8,0,3.18,1.26,3.18,3.78v6Z"/><path class="cls-1" d="M161,38.51c0-1.33-.69-2-2.32-2.62l-1.78-.74A4.15,4.15,0,0,1,154,30.91c0-2.94,2.27-4.22,4.66-4.22a10,10,0,0,1,3.13.54l1.21-.54.22,4.1-.67.15-1.19-1.55a3.15,3.15,0,0,0-2.79-1.58,1.81,1.81,0,0,0-1.95,1.88c0,1.14.52,1.8,2,2.39l1.85.74c2.32.91,3.33,2.25,3.33,4.52,0,3-2.25,4.37-4.89,4.37a6.82,6.82,0,0,1-3.41-.79l-1.33.79L153.75,37l.77-.15,1.21,1.75a3.52,3.52,0,0,0,3.13,1.92A1.89,1.89,0,0,0,161,38.51Z"/><path class="cls-1" d="M164,31.16l3.95-3.38h.74v2.91h3.26L171.76,32H168.7V37.8c0,1.43.54,2,1.53,2a3.55,3.55,0,0,0,1.83-.52l.25.59a4.11,4.11,0,0,1-3.58,1.85c-1.92,0-3.26-1-3.26-3.48V32H164Z"/><path class="cls-1" d="M181.63,39.08c0,1.11.4,1.36,1.55,1.23l.07.49a3.51,3.51,0,0,1-2.59.89,1.93,1.93,0,0,1-2.15-1.58l-.07,0a3.06,3.06,0,0,1-3,1.6,2.76,2.76,0,0,1-3-3c0-2.17,1.73-3.23,4.47-3.23a6.52,6.52,0,0,1,1.48.2v-.94c0-1.43-.91-2.15-2.37-2.15a5.9,5.9,0,0,0-2.94.74l-.3-.72a5.74,5.74,0,0,1,4.79-2.2c2,0,4,.91,4,3.92Zm-3.78-2.44c-1.46,0-2.29.37-2.29,1.68A1.38,1.38,0,0,0,177,39.84a2,2,0,0,0,1.43-.52V36.64Z"/><path class="cls-1" d="M182.08,31.16,186,27.78h.74v2.91H190L189.85,32h-3.06V37.8c0,1.43.54,2,1.53,2a3.56,3.56,0,0,0,1.83-.52l.25.59a4.11,4.11,0,0,1-3.58,1.85c-1.92,0-3.26-1-3.26-3.48V32h-1.48Z"/><path class="cls-1" d="M196.46,39.62a3.87,3.87,0,0,0,2.66-1l.47.54c-.79,1.78-2.29,2.49-4.39,2.49-2.81,0-5-1.8-5-5.48s2.52-5.77,5.5-5.77a3.75,3.75,0,0,1,4.1,4,7.21,7.21,0,0,1-.12,1.41h-6.32C193.38,38.09,194.36,39.62,196.46,39.62Zm-3.08-4.93h3.48a4.19,4.19,0,0,0,.07-.91c0-1.16-.32-2.2-1.48-2.2S193.57,32.59,193.38,34.69Z"/><path class="cls-1" d="M215.11,36.31c0,3.43-2.22,5.38-5.65,5.38s-5.92-1.46-5.92-5.28V28.3L202,27.73l.17-.79h6.14l.2.79-1.58.57v8.07c0,2.62,1.18,3.7,3.18,3.7s3.38-1.18,3.38-3.78v-8l-1.87-.57.2-.79h4.71l.2.79-1.58.57Z"/><path class="cls-1" d="M229,40.73l-.32.72h-5.4v-.69l1-.47V34.91c0-1.6-.84-2.15-1.75-2.15a2.86,2.86,0,0,0-1.95.84v6.66l1.46.47-.32.72h-5.38v-.69l1-.44V33.55l-1-1.63v-.27L220,30.44h.52l-.07,2.15h.1a4.23,4.23,0,0,1,3.78-2.15c1.8,0,3.18,1.26,3.18,3.78v6Z"/><path class="cls-1" d="M234.87,40.73l-.32.72h-5.38v-.69l1-.44V33.55l-1-1.63v-.27l3.73-1.21h.54v9.82Zm-3.08-15.59a2,2,0,0,1,2,2,2,2,0,1,1-2-2Z"/><path class="cls-1" d="M243,32l-1.55-.47.12-.84h4.17l.15.81-1.14.39-3.68,9.55h-2.44L235,32.19l-1.11-.74.17-.77h5.7l.17.86-1.58.37,1.5,4.27a19.4,19.4,0,0,1,.77,2.86h.1a21,21,0,0,1,.86-2.89Z"/><path class="cls-1" d="M251.23,39.62a3.86,3.86,0,0,0,2.66-1l.47.54c-.79,1.78-2.29,2.49-4.39,2.49-2.81,0-5-1.8-5-5.48s2.52-5.77,5.5-5.77a3.75,3.75,0,0,1,4.1,4,7.22,7.22,0,0,1-.12,1.41H248.1C248.15,38.09,249.14,39.62,251.23,39.62Zm-3.08-4.93h3.48a4.19,4.19,0,0,0,.07-.91c0-1.16-.32-2.2-1.48-2.2S248.35,32.59,248.15,34.69Z"/><path class="cls-1" d="M261.2,40.68l-.32.76h-6v-.69l1-.44V33.58l-1-1.63v-.27l3.73-1.23h.52L259,33h.1a3.44,3.44,0,0,1,3.08-2.52,1.89,1.89,0,0,1,2.1,2,1.69,1.69,0,0,1-1.7,1.8,1.61,1.61,0,0,1-1.7-1.73,5,5,0,0,0-1.78,1.58v6.14Z"/><path class="cls-1" d="M264.88,37.92c1.31,2.17,2.22,2.71,3.6,2.71,1,0,1.7-.32,1.7-1.31,0-.79-.47-1.23-1.58-1.58l-1.6-.52a3.21,3.21,0,0,1-2.64-3.33c0-2.39,1.65-3.45,3.87-3.45a5.58,5.58,0,0,1,2.34.49l1.36-.47L272,33.7l-.59.15c-1-1.58-1.92-2.29-3.16-2.29-.89,0-1.43.47-1.43,1.18s.37,1.09,1.23,1.38l1.78.59c2,.67,2.94,1.7,2.94,3.58,0,2.39-1.68,3.41-4.37,3.41a6.81,6.81,0,0,1-2.64-.57l-1.28.57-.27-3.63Z"/><path class="cls-1" d="M278.82,40.73l-.32.72h-5.38v-.69l1-.44V33.55l-1-1.63v-.27l3.73-1.21h.54v9.82Zm-3.08-15.59a2,2,0,0,1,2,2,2,2,0,1,1-2-2Z"/><path class="cls-1" d="M278.25,31.16l3.95-3.38h.74v2.91h3.26L286,32H283V37.8c0,1.43.54,2,1.53,2a3.56,3.56,0,0,0,1.83-.52l.25.59A4.11,4.11,0,0,1,283,41.69c-1.92,0-3.26-1-3.26-3.48V32h-1.48Z"/><path class="cls-1" d="M286.12,32.19,285,31.45l.17-.77h5.72l.15.86-1.58.37,1.6,4.07a10.92,10.92,0,0,1,.76,2.91h.1a29.63,29.63,0,0,1,.84-2.94l1.36-4-1.55-.47.12-.84h4.15l.15.81-1.14.39-3.63,9.72c-1.28,3.45-2.64,5.21-5.13,5.21a2,2,0,0,1-2.25-2,1.56,1.56,0,0,1,1.65-1.7A1.43,1.43,0,0,1,288,44.65a1.5,1.5,0,0,1-.39,1c1.06-.1,2.2-1.58,2.74-3.26Z"/><path class="cls-1" d="M74.66,34.1a28.6,28.6,0,0,0-2.43-8,14,14,0,0,0-3.45-4.52,10.17,10.17,0,0,0-6.59-2.42,12,12,0,0,0-3.32.46L62,12.83l.38-.81-.72-.51L55.43,7.05l-.28-.2H49.91C49,6.86,48,6.18,46.8,5.32A16.62,16.62,0,0,0,36.54,1.73c-4.28,0-7.66,1.19-10.33,3.64h0L15.38,15.93h0l-.31.3L8.78,22.37h0a14.74,14.74,0,0,0-2.62,3.75,28.6,28.6,0,0,0-2.43,8,45.82,45.82,0,0,0,.66,19.43,51.76,51.76,0,0,0,9.35,18.42c5.48,7,13,13.45,22.27,19l2.64,1.58.55.33.55-.33L42.38,91c9.3-5.58,16.79-12,22.27-19A51.76,51.76,0,0,0,74,53.53,45.82,45.82,0,0,0,74.66,34.1Z"/><path d="M34.07,27H24.41L23.54,41.5a5.63,5.63,0,0,1,1.54.46Z"/><path d="M26.56,60l-.08,0V61.1l.48.21a7.58,7.58,0,0,0,3,.54,7.52,7.52,0,0,0,3.21-.62V60a6.6,6.6,0,0,1-3.21.73,6.52,6.52,0,0,1-3-.63Z"/><path d="M27,64.48l-.4-.19-.08,0v1.18l.48.21a7.58,7.58,0,0,0,3,.54,8,8,0,0,0,2.46-.34V64.71a6.66,6.66,0,0,1-2.46.4A6.52,6.52,0,0,1,27,64.48Z"/><path d="M27,68.8l-.4-.19-.08,0v1.18L27,70a7.58,7.58,0,0,0,3,.54,9.34,9.34,0,0,0,1.43-.1V69.31a7.93,7.93,0,0,1-1.43.12A6.52,6.52,0,0,1,27,68.8Z"/><path d="M37.83,6.91a9.72,9.72,0,0,1,2.31.8A14.35,14.35,0,0,1,42.23,9a32.45,32.45,0,0,0,3.21,2.23V9.44c-.82-.45-1.63-1-2.49-1.52a15.54,15.54,0,0,0-2.37-1.23A10.74,10.74,0,0,0,38,6,12.51,12.51,0,0,0,35.33,6h-.15v.71h.18A11.69,11.69,0,0,1,37.83,6.91Z"/><path d="M73.61,34.28a27.57,27.57,0,0,0-2.33-7.68,12.9,12.9,0,0,0-3.18-4.18,9.12,9.12,0,0,0-5.91-2.17,10.17,10.17,0,0,0-7.43,3l-3.22-3.48.52-1.12h4.38l-.52,1.12H57.6l3.47-7.44L54.81,7.92h-4.9c-1.22,0-2.32-.76-3.72-1.72a15.49,15.49,0,0,0-9.65-3.4,13.51,13.51,0,0,0-9.61,3.36L15.81,17h0L9.54,23.12A13.65,13.65,0,0,0,7.11,26.6a27.57,27.57,0,0,0-2.33,7.68,44.75,44.75,0,0,0,.64,19,50.7,50.7,0,0,0,9.16,18c5.39,6.94,12.79,13.26,22,18.77l2.64,1.58,2.64-1.58c9.19-5.51,16.58-11.83,22-18.77a50.7,50.7,0,0,0,9.16-18A44.75,44.75,0,0,0,73.61,34.28ZM28,7.27c.79-.73,3.21-2.95,8.56-2.95,4.26,0,6.66,1.66,8.79,3.13,1.55,1.07,2.88,2,4.58,2h4.41l4.84,3.44-2,4.29H52.81a3,3,0,0,1-1.75-.7A3.19,3.19,0,0,1,50,14.27h-.76a4.36,4.36,0,0,0,.2,1.58,4,4,0,0,0,.83,1.44,4.08,4.08,0,0,0,.55.51L49.73,20.1l3,3.2H50.44L46.54,20h-.91L48.5,23.3H42.74L39.41,20h-2a7.79,7.79,0,0,0,.67-2.83c0-.18,0-.36,0-.53l0-.53,0-.26,0-.26L37.9,15a8.15,8.15,0,0,0-.76-2,7.58,7.58,0,0,0-1.25-1.68l-.18-.19-.2-.17-.4-.34a8,8,0,0,0-.87-.58,7.4,7.4,0,0,0-3-1,8.26,8.26,0,0,0-.91,0v.74a6.77,6.77,0,0,1,3.47,1.08,7,7,0,0,1,.73.54l.33.31.16.16.15.17a6.5,6.5,0,0,1,1,1.5,7,7,0,0,1,.56,1.7l.06.44,0,.22v.67c0,.15,0,.3,0,.44a6.42,6.42,0,0,1-1.25,3.24l-.9,1.2h4.16l1.81,1.81H23.46V17H18Zm-7.7,22.17a5.65,5.65,0,0,1-4.93,4.23c-.18,0-.37,0-.56,0a5.67,5.67,0,0,1-5.64-5.28c0-.13,0-.25,0-.38a5.69,5.69,0,0,1,1.79-4.12l5.52-5.39h5.5v5.42ZM71.49,52.86a46.63,46.63,0,0,1-4.56,11h0l-.32.55-.24.41-.32.53-.28.45-.3.48-.57.86-.23.33-.43.63-.26.36-.46.63-.23.31-.7.92h0l-.68.84a67.22,67.22,0,0,1-8.7,8.87,86,86,0,0,1-7.94,6q-2.05,1.38-4.24,2.69L39.2,89.87h0l-1.86-1.11c-9-5.41-16.27-11.6-21.55-18.4l-.45-.6-.31-.4-.54-.75-.19-.26-.6-.86-.1-.15-.63-1,0-.05a47.51,47.51,0,0,1-6-13.47,43.22,43.22,0,0,1-.61-18.32,30.29,30.29,0,0,1,1.39-5.4A7.15,7.15,0,0,0,9,32.23c-.21.83-.4,1.7-.56,2.67a45.58,45.58,0,0,0-.55,4.53l10,4.69a5.53,5.53,0,0,1,.56-.76,5.65,5.65,0,0,1,.49-.48L12.86,35a7.07,7.07,0,0,0,3.33.12L20.31,42a5.66,5.66,0,0,1,1.54-.46l-.62-10.32a7.18,7.18,0,0,0,.5-1.36L23.21,25l.05-.18H55.42l.23-.25a8.49,8.49,0,0,1,6.54-2.8,7.61,7.61,0,0,1,4.93,1.82,11.4,11.4,0,0,1,2.8,3.69,26.09,26.09,0,0,1,2.19,7.26A43.22,43.22,0,0,1,71.49,52.86Z"/><circle cx="54.69" cy="12.53" r="0.82"/><path d="M50,13h0a1.66,1.66,0,0,1,1.27-1.26v-.77h-2V13Z"/><path d="M70,34.9c-.87-5-2.93-11-7.82-11A6.24,6.24,0,0,0,56.54,27H38.67L26.47,42.87a5.66,5.66,0,0,1,.44.43,5.44,5.44,0,0,1,.65.87l8.75-4-.72,3.17-7.37,2.34a6.18,6.18,0,0,1,.21,1.68,5.48,5.48,0,0,1-.72-.2c-.25-.09-.48-.19-.71-.3l-.34-.16L26,46.44a7.33,7.33,0,0,0-1.84-.53l-.32,0-.53,0-.51,0h-.15l-.51,0-.5,0-.36,0a7.3,7.3,0,0,0-1.78.5c-.26.11-.51.23-.74.34l-.35.17c-.22.1-.45.2-.69.29a5.49,5.49,0,0,1-.72.2,6.14,6.14,0,0,1,.23-1.75L7.73,42.52c0,1.11,0,2.21.14,3.3h0c0,.11,0,.22,0,.33s0,.46.06.68H8c0,.17,0,.34.05.51H8.6l.29,0h0c.23,0,.44,0,.63.08h0a7,7,0,0,1,1.9.68,8,8,0,0,0,4,.95,8,8,0,0,0,4-.95c.28-.14.56-.27.85-.38a6,6,0,0,1,2-.41h.87a6,6,0,0,1,1.94.37c.32.12.62.26.93.41a8,8,0,0,0,4,.95,8,8,0,0,0,4-.95l.66-.3-.33,1.47L35.66,49l-.34,1.55a8.59,8.59,0,0,0-2,.73,6.76,6.76,0,0,1-3.4.82,6.76,6.76,0,0,1-3.4-.82,7.76,7.76,0,0,0-3.87-.92,7.75,7.75,0,0,0-3.86.92,6.76,6.76,0,0,1-3.4.82,6.76,6.76,0,0,1-3.4-.82,8.68,8.68,0,0,0-1.91-.72h0l-.12,0-.19,0-.22,0-.14,0h0a9,9,0,0,0-.93-.08q.11.54.24,1.08l.62.07.21,0,.14,0,.31.07h0l.31.09a9.66,9.66,0,0,1,1.19.5,7.75,7.75,0,0,0,3.86.92,7.76,7.76,0,0,0,3.87-.92,6.76,6.76,0,0,1,3.4-.82,6.77,6.77,0,0,1,3.4.82,7.75,7.75,0,0,0,3.87.92,7.75,7.75,0,0,0,3.87-.92,9.32,9.32,0,0,1,1.24-.52l-.69,3.2c-.41.15-.77.32-1.11.48a6.49,6.49,0,0,1-3.3.8,6.49,6.49,0,0,1-3.3-.8,8,8,0,0,0-4-.95,8,8,0,0,0-4,.95,6.49,6.49,0,0,1-3.3.8,6.49,6.49,0,0,1-3.3-.8l-.7-.32h0l0,0-.09,0h0a7.23,7.23,0,0,0-1.65-.46c.18.56.38,1.12.59,1.68h0a46.07,46.07,0,0,0,3.37,7.06l.18.31.3.49.22.36.29.46.25.39.29.44.28.42.28.4.32.46.26.36.39.53.21.29.62.82c5.12,6.58,12.17,12.6,21,17.88l.76.46.76-.46c8.8-5.28,15.85-11.29,21-17.88l0,0q.48-.61.93-1.24l.11-.16q.46-.63.89-1.27l.07-.11q.92-1.36,1.75-2.75a46.06,46.06,0,0,0,3.55-7.44h0c.18-.49.36-1,.52-1.47a7.23,7.23,0,0,0-1.65.46h0l-.08,0-.05,0h0l-.7.32a7.25,7.25,0,0,1-6.61,0,8.77,8.77,0,0,0-7.93,0,7.25,7.25,0,0,1-6.61,0c-.34-.16-.69-.33-1.11-.48L42.73,49l1.41.29h0l-.85-3.74L47.9,41l3,2.23,4.76-4.81,4.76,4.81,3-2.23,5.45,5.52,1.37,1.39c.06-.48.12-1,.17-1.45h0c0-.07,0-.14,0-.2s0-.2,0-.3h0A43.55,43.55,0,0,0,70,34.9Zm-8.95.7.09-.28h1.74l.54-1.65h.29l.54,1.65H66l.09.28-1.41,1,.54,1.65-.23.17-1.41-1-1.41,1-.23-.17.54-1.65Zm-3.72-.2-.23.17-1.41-1-1.41,1-.23-.17.54-1.65-1.41-1,.09-.28H55l.54-1.65h.29l.54,1.65h1.74l.09.28-1.41,1Zm-7.87,2.88-.23.17-1.41-1-1.41,1-.23-.17.54-1.65-1.41-1,.09-.28h1.74l.54-1.65H48l.54,1.65h1.74l.09.28-1.41,1ZM43.08,57.81l-1.72-.35h0l2.36,11.3h0L39.2,66.94l-4.53,1.83h0L37,57.46l-1.72.35h0l2.25-10.75h0l-1.3.26,2.8-15h.28l2.8,15-1.3-.26h0Zm-3,12.44.35,10.67H37.93l.37-10.68.06-1.74.84-.41.86.43ZM37,73.32,37,74a5.24,5.24,0,0,0-2.46.66A9.17,9.17,0,0,1,30,75.75a9,9,0,0,1-4.35-1l-.18-.08L25,74.46l-.07,0a5.09,5.09,0,0,0-.6-.22l.64-.53h0l0,0,.18-.15c.33.13.63.27.94.42l.4.19a7.52,7.52,0,0,0,3.47.74,7.75,7.75,0,0,0,3.87-.92A6.73,6.73,0,0,1,37,73.1Zm14.9.77.4-.19c.31-.15.61-.29.94-.42l.85.71a5.28,5.28,0,0,0-.67.25l-.07,0-.39.18-.18.08a9,9,0,0,1-4.35,1,9.17,9.17,0,0,1-4.53-1.08A5.24,5.24,0,0,0,41.43,74l-.05-.69,0-.23a6.73,6.73,0,0,1,3.2.82,7.75,7.75,0,0,0,3.87.92A7.52,7.52,0,0,0,51.9,74.1Zm-18-17.31,0,0-.65,3h0l1.78-.36-2.56,12L37.32,69l-.12,1.61L37.1,72a7.73,7.73,0,0,0-3.73.92,6.76,6.76,0,0,1-3.4.82,6.59,6.59,0,0,1-3.18-.71L26.56,73c-.34-.16-.69-.33-1.08-.47V57.65l0,0-1,.77V72.73l-1,.8h0V57.92l1.89-1.42.09,0,.38.17.18.09c.29.14.59.28.93.42h0a7.93,7.93,0,0,0,3,.52A8,8,0,0,0,33.93,56.79Zm10.53,0a8,8,0,0,0,4,.95,7.93,7.93,0,0,0,3-.52h0c.34-.13.64-.28.93-.42l.05,0,.51-.24.09,0,1.89,1.42v15.6h0l-1-.8V58.45l-1.07-.8V72.48c-.39.14-.74.31-1.08.47l-.22.11a6.59,6.59,0,0,1-3.18.71A6.76,6.76,0,0,1,45,73,7.73,7.73,0,0,0,41.28,72l-.11-1.4L41,69l4.8,2.38-.33-1.54L43.28,59.41l1.78.36-.65-3Z"/><path d="M51.43,61.31l.48-.21V59.92l-.08,0-.4.19a6.52,6.52,0,0,1-3,.63A6.6,6.6,0,0,1,45.22,60v1.17a8.65,8.65,0,0,0,6.21.08Z"/><path d="M51.43,64.48a6.52,6.52,0,0,1-3,.63,6.66,6.66,0,0,1-2.46-.4v1.13a8,8,0,0,0,2.46.34,7.58,7.58,0,0,0,3-.54l.48-.21V64.25l-.08,0Z"/><path d="M51.43,68.8a6.52,6.52,0,0,1-3,.63A7.93,7.93,0,0,1,47,69.31V70.4a9.34,9.34,0,0,0,1.43.1,7.58,7.58,0,0,0,3-.54l.48-.21V68.58l-.08,0Z"/><polygon points="13.31 29.45 13.91 29.86 20.15 21.33 20.15 20.24 19.12 20.24 13.31 29.45"/><polygon points="48.68 50.99 48.68 47.32 47.13 47.32 47.13 48.21 47.65 48.21 47.65 50.99 48.68 50.99"/><path d="M51.62,50a1.45,1.45,0,0,0,2.83,0,1,1,0,0,0-.63-.94.9.9,0,0,0,.48-.81,1.29,1.29,0,0,0-2.53,0,.9.9,0,0,0,.48.81A1,1,0,0,0,51.62,50ZM53,48.62a.35.35,0,1,1,.34-.35A.34.34,0,0,1,53,48.62Zm0,1.64a.38.38,0,0,1-.37-.38.37.37,0,1,1,.74,0A.38.38,0,0,1,53,50.26Z"/><path d="M58.39,47.32l-.78,1A2.53,2.53,0,0,0,57,49.79a1.37,1.37,0,0,0,.5,1,1.71,1.71,0,0,0,1,.32,1.44,1.44,0,0,0,1.58-1.4A1.23,1.23,0,0,0,59,48.42a1.2,1.2,0,0,0-.35.05l1-1.16Zm.18,1.91a.53.53,0,0,1,0,1.07.53.53,0,1,1,0-1.07Z"/><path d="M62.54,50a1.45,1.45,0,0,0,2.83,0,1,1,0,0,0-.63-.94.9.9,0,0,0,.48-.81,1.29,1.29,0,0,0-2.53,0,.9.9,0,0,0,.48.81A1,1,0,0,0,62.54,50ZM64,48.62a.35.35,0,1,1,.34-.35A.34.34,0,0,1,64,48.62Zm0,1.64a.38.38,0,0,1-.37-.38.37.37,0,1,1,.74,0A.38.38,0,0,1,64,50.26Z"/></svg>